<?xml version="1.0" encoding="UTF-8" ?>
<!DOCTYPE svg PUBLIC "-//W3C//DTD SVG 1.1//EN" "http://www.w3.org/Graphics/SVG/1.1/DTD/svg11.dtd">
<svg width="200pt" height="199pt" viewBox="0 0 200 199" version="1.1" xmlns="http://www.w3.org/2000/svg">
<path fill="#f7941e" d=" M 93.88 23.50 C 112.43 21.96 131.46 27.33 146.29 38.63 C 164.20 51.98 175.83 73.55 176.63 95.93 C 177.68 114.27 171.62 132.85 160.14 147.17 C 148.18 162.28 130.34 172.53 111.26 175.25 C 98.45 176.75 85.19 175.85 73.10 171.10 C 55.15 164.40 39.91 150.69 31.54 133.43 C 21.03 112.71 20.99 87.12 31.26 66.30 C 42.68 42.33 67.39 25.42 93.88 23.50 Z" />
<path fill="#ffffff" d=" M 54.67 69.93 C 63.44 69.92 72.22 69.92 80.99 69.93 C 80.82 72.50 81.61 75.47 79.74 77.59 C 74.48 84.69 69.36 91.90 64.08 98.98 C 69.70 99.01 75.33 98.99 80.96 99.00 C 80.95 101.17 80.95 103.35 80.95 105.52 C 72.18 105.50 63.41 105.53 54.64 105.51 C 54.91 102.94 53.90 99.91 55.74 97.75 C 60.96 90.51 66.34 83.38 71.48 76.07 C 65.87 76.06 60.27 76.08 54.67 76.06 C 54.67 74.02 54.67 71.97 54.67 69.93 Z" />
<path fill="#ffffff" d=" M 85.80 69.93 C 93.76 69.92 101.72 69.92 109.67 69.93 C 109.67 71.97 109.67 74.02 109.67 76.06 C 104.10 76.07 98.54 76.08 92.97 76.05 C 92.97 78.70 92.97 81.35 92.98 84.00 C 97.87 84.00 102.76 84.00 107.65 84.01 C 107.64 86.28 107.64 88.55 107.63 90.81 C 102.73 90.84 97.83 90.84 92.93 90.83 C 93.04 93.79 92.23 97.99 95.71 99.39 C 100.08 101.03 104.94 99.76 109.51 99.97 C 109.52 101.67 109.53 103.38 109.56 105.09 C 105.48 106.35 101.17 106.08 96.97 105.99 C 91.94 105.80 86.39 102.51 86.04 97.04 C 85.51 88.02 85.95 78.96 85.80 69.93 Z" />
<path fill="#ffffff" d=" M 115.74 69.94 C 118.69 69.93 121.63 69.94 124.57 69.96 C 128.99 78.02 133.35 86.12 137.96 94.07 C 137.98 86.03 137.95 77.98 137.97 69.94 C 140.51 69.94 143.06 69.94 145.60 69.95 C 145.59 81.80 145.61 93.65 145.59 105.50 C 142.66 105.49 139.70 105.74 136.78 105.32 C 131.88 97.45 127.80 89.08 123.12 81.07 C 123.12 89.22 123.14 97.37 123.12 105.52 C 120.66 105.52 118.20 105.51 115.74 105.51 C 115.74 93.66 115.74 81.80 115.74 69.94 Z" />
<path fill="#3a3a3c" d=" M 54.52 110.02 C 59.77 110.01 65.02 110.01 70.26 110.02 C 70.26 110.86 70.26 112.54 70.26 113.38 C 68.21 113.39 66.16 113.38 64.11 113.39 C 64.11 118.29 64.10 123.20 64.10 128.10 C 63.22 128.10 61.44 128.10 60.56 128.10 C 60.56 123.20 60.55 118.30 60.55 113.40 C 58.54 113.38 56.54 113.39 54.53 113.38 C 54.53 112.54 54.52 110.86 54.52 110.02 Z" />
<path fill="#3a3a3c" d=" M 72.96 110.01 C 77.55 110.01 82.14 110.00 86.72 110.03 C 86.72 111.15 86.71 112.27 86.68 113.39 C 83.29 113.38 79.91 113.39 76.52 113.39 C 76.52 114.40 76.52 116.42 76.52 117.43 C 79.66 117.43 82.79 117.43 85.93 117.42 C 85.96 118.61 85.98 119.81 86.00 121.00 C 82.84 121.00 79.68 121.01 76.53 121.00 C 76.52 122.33 76.51 123.67 76.50 125.00 C 79.93 125.00 83.37 125.01 86.81 125.02 C 86.80 125.79 86.79 127.33 86.78 128.10 C 82.18 128.11 77.57 128.11 72.96 128.10 C 72.96 122.07 72.96 116.04 72.96 110.01 Z" />
<path fill="#3a3a3c" d=" M 90.48 110.03 C 95.17 110.52 101.14 108.37 104.75 112.36 C 107.55 115.82 104.99 121.08 100.70 121.59 C 102.68 123.72 104.61 125.89 106.50 128.09 C 104.99 128.10 103.49 128.10 101.98 128.12 C 99.71 125.56 97.65 122.67 94.55 121.04 C 94.29 123.38 94.26 125.74 94.16 128.09 C 93.25 128.10 91.42 128.11 90.51 128.12 C 90.46 122.09 90.50 116.06 90.48 110.03 Z" />
<path fill="#3a3a3c" d=" M 116.04 109.99 C 117.20 109.99 118.36 110.00 119.52 110.01 C 122.02 116.07 124.80 122.00 127.23 128.09 C 125.90 128.08 124.58 128.09 123.25 128.10 C 122.69 126.84 122.17 125.55 121.65 124.27 C 119.01 124.28 116.36 124.34 113.72 124.38 C 113.26 125.63 112.73 126.86 112.25 128.11 C 110.89 128.10 109.53 128.08 108.17 128.11 C 110.75 122.05 113.37 116.01 116.04 109.99 Z" />
<path fill="#3a3a3c" d=" M 130.53 112.41 C 135.30 107.39 145.11 109.66 146.47 116.74 C 145.59 116.93 143.84 117.31 142.96 117.50 C 141.89 115.74 140.82 113.70 138.64 113.16 C 135.89 112.19 133.78 114.69 131.85 116.19 C 131.77 118.69 131.21 121.71 133.29 123.61 C 134.96 125.40 137.53 125.01 139.73 125.16 C 140.79 123.78 141.86 122.40 142.93 121.02 C 143.81 121.04 145.56 121.08 146.43 121.10 C 145.75 126.77 139.21 130.31 134.04 128.12 C 127.48 126.33 125.64 116.88 130.53 112.41 Z" />
<path fill="#f7941e" d=" M 94.25 113.34 C 96.88 113.26 99.52 113.43 102.07 114.15 C 101.87 115.46 102.29 117.15 100.87 117.92 C 98.67 118.18 96.45 118.05 94.24 118.06 C 94.25 116.48 94.26 114.91 94.25 113.34 Z" />
<path fill="#f7941e" d=" M 117.68 114.76 C 118.57 116.82 119.50 118.88 120.27 121.00 C 118.56 121.00 116.85 121.01 115.14 121.03 C 115.97 118.94 116.82 116.84 117.68 114.76 Z" />
</svg>
